<svg width="865" height="865" viewBox="0 0 865 865" fill="none" xmlns="http://www.w3.org/2000/svg">
<circle cx="432.5" cy="432.5" r="432.5" fill="black"/>
<path d="M113 253.199C174.551 217.737 253.202 237.53 290.541 297.879L527.7 681.181C466.149 716.643 387.498 696.851 350.159 636.502L113 253.199Z" fill="white"/>
<path d="M325.667 256.707C387.129 221.296 465.677 241.275 502.655 301.724L648.211 539.67C586.748 575.082 508.201 555.103 471.223 494.653L325.667 256.707Z" fill="white"/>
<path d="M585.165 275.706C614.542 229.518 675.187 214.655 722.664 242.008L748.229 256.738L648.839 428.528L584.681 322.956C575.832 308.393 576.019 290.084 585.165 275.706Z" fill="white"/>
</svg>
